<svg width="19" height="41" viewBox="0 0 19 41" fill="none" xmlns="http://www.w3.org/2000/svg">
<path fill-rule="evenodd" clip-rule="evenodd" d="M4.05545 20.6698V40.2957C4.05545 40.5801 4.28076 40.8076 4.56239 40.8076H11.7721C12.0537 40.8076 12.279 40.5801 12.279 40.2957V20.3853H17.5174C17.799 20.3853 18.0243 20.1578 18.0243 19.9302L18.5312 13.9002C18.5312 13.6157 18.306 13.3313 18.0243 13.3313H12.279V9.0648C12.279 8.04084 13.0676 7.24445 14.0815 7.24445H18.137C18.4186 7.24445 18.6439 7.01696 18.6439 6.73253V0.702477C18.6439 0.418043 18.4186 0.190552 18.137 0.190552H11.3215C7.32237 0.190552 4.11176 3.43298 4.11176 7.47194V13.2745H0.506879C0.225249 13.2745 0 13.502 0 13.7864V19.8165C0 20.1009 0.225249 20.3284 0.506879 20.3284H4.11176V20.6698H4.05545Z" fill="white"/>
</svg>
