<svg width="1917" height="568" viewBox="0 0 1917 568" fill="none" xmlns="http://www.w3.org/2000/svg">
<path d="M2138.98 14.23L2132.7 13.86C2128.37 13.12 2124.05 12.37 2119.7 11.54L2115.7 9.45999C2108.8 2.30999 2093.43 3.89999 2082.7 0.73999C2080.78 1.14999 2079.96 1.89999 2079.79 2.97999C2072.06 2.81999 2066.24 5.04999 2060.5 7.38999C2060.84 8.87999 2061.17 10.39 2061.5 11.79C2061.57 15.28 2052.85 16.2 2052.68 19.6L2050.86 19.85C2044.95 22.93 2037.39 25.09 2033.4 29.08C2033.32 29.16 2033.49 29.24 2033.49 29.33C2023.93 26.92 2015.04 28.82 2006.14 30.65C2005.31 31.65 2006.3 31.91 2005.97 32.73C2005.68 32.3547 2005.35 32.0186 2004.97 31.73C2006.13 29.48 2003.8 28.9 2000.15 28.99C1999.56 29.15 1999.65 29.56 1999.15 29.73L1988.43 26.99C1985.43 25.41 1982.43 23.91 1979.43 22.42L1971.12 22.92C1968.22 22.42 1965.3 21.84 1962.39 21.33C1958.24 21.92 1954 22.5 1949.84 23.08C1945.11 23.33 1942.7 24.99 1941.03 27.08C1936.79 27.25 1932.64 27.34 1928.49 27.5H1893.99C1885.95 24.53 1877.32 23.5021 1868.81 24.5C1867.4 24.76 1865.99 25.09 1864.66 25.34C1844.66 26.83 1828.25 19.85 1809.31 18.85C1807.81 18.77 1806.4 18.69 1804.98 18.69C1794.98 19.93 1785.12 21.27 1775.14 22.51C1769.32 24.01 1765.76 27.74 1757.95 27.25C1755.95 23.92 1747.64 26.08 1745.15 23.17C1743.89 22.9428 1742.59 22.9158 1741.32 23.09C1734.32 26.83 1727.19 24.59 1720.12 23.17C1711.49 22.51 1701.59 25.51 1694.36 20.68C1692.95 20.68 1691.54 20.68 1690.12 20.6C1686.12 19.85 1685.12 21.01 1684.81 22.76C1682.4 22.76 1679.9 22.84 1677.41 22.93C1669.18 22.35 1660.29 23.84 1652.72 20.93L1643.16 22.93C1631.16 23.17 1620.47 20.43 1609.26 18.93C1598.04 17.68 1589.39 21.59 1579.5 23C1573.02 20.67 1565.79 20.25 1558.23 20.59C1558.06 21.2712 1557.98 21.969 1557.97 22.67L1550.91 23.16C1549.91 27.57 1539.53 27.9 1536.91 31.64L1515.72 31.39C1501.18 22.92 1487.21 30.39 1473.08 31.81L1464.52 32.06C1461.7 32.06 1458.87 31.97 1456.13 31.97L1439.84 31.48C1430.44 27.16 1419.72 28.74 1409.17 29.65C1406.26 30.89 1403.27 32.23 1400.27 33.47L1392.22 34.22L1383.65 33.97C1379.56 32.8192 1375.25 32.7058 1371.1 33.64C1371.06 32.9379 1370.86 32.2538 1370.52 31.64C1363.37 28.15 1356.22 28.48 1349 31.56C1332.29 37.71 1315.34 30.81 1298.55 31.73C1289.24 24.16 1279.19 28.81 1269.29 31.31C1269.21 28.15 1265.14 26.41 1260.65 24.83C1259.07 24 1257.58 23.08 1256 22.25C1251.67 22.5 1247.35 22.75 1243 23.08C1238.84 22.25 1234.77 21.33 1230.61 20.51C1224.61 16.6 1216.48 18.93 1209.26 18.59C1209.92 19.12 1209.63 19.65 1209.19 20.18C1209.19 20.32 1209.19 20.45 1209.19 20.59H1208.86C1208.98 20.46 1209.1 20.32 1209.21 20.18C1209.21 19.6 1209.28 19.06 1209.28 18.59C1201.13 17.18 1192.82 15.85 1187.92 11.59C1187.7 10.9002 1187.42 10.231 1187.08 9.58999C1181.68 9.58999 1176.28 9.66999 1170.79 9.66999L1171.13 9.00999C1169.84 9.25598 1168.53 9.42295 1167.22 9.50999C1165.39 11.59 1163.57 13.58 1161.74 15.65C1156.25 15.65 1150.6 14.41 1145.45 16.4C1134.15 13.99 1122.92 11.5 1111.62 9.08999C1111.37 5.84999 1107.38 3.92999 1102.81 2.18999C1101.4 2.10999 1099.99 2.02999 1098.57 1.85999L1081.45 5.34999C1077.13 5.51999 1073.31 2.77999 1068.65 4.67999C1060.92 4.18999 1055.36 6.01999 1051.37 9.24999C1037.82 7.83999 1038.15 14.08 1034.17 17.9C1022.03 19.9 1007.07 19.07 1000.5 26.9C991.61 24.82 982.8 23.41 974.23 27.23C971.58 28.47 968.92 29.8 966.35 31.14L949.55 31.63L940.99 31.89C936.92 30.89 933.35 28.98 928.19 29.72L915.56 26.98H911.15C905.218 26.6341 899.325 28.144 894.29 31.3C887.28 30.74 879.97 27.74 873.24 31.74C865.84 35.22 861.93 30.32 856.24 29.82C854.82 29.57 853.33 29.33 851.91 29.16L850.17 29.41C849.92 29 849.5 28.82 849.34 28.25C846.1 25.09 840.78 24.76 834.71 25.42C831.3 25.25 828.14 25.34 826.4 27.25C824.9 26.59 823.32 25.92 821.83 25.25C817.42 21.85 809.28 26 804.71 22.93C795.11 24.74 784.3 21.1 775.24 24.74C772.42 25.07 769.59 25.4 766.85 25.82C758.54 28.31 754.14 25.32 749.73 22.41C744.08 19.74 736.6 20.68 730.17 19.6C727.501 19.7432 724.894 20.4522 722.52 21.68C722.36 21.76 722.19 21.76 722.02 21.85C717.02 19.85 714.38 22.68 711.22 24.5C705.32 25.92 698.42 26.42 694.1 29.33L694.27 29.16C691.61 28.66 688.86 28.08 686.2 27.5L678.56 29.99C676.48 30.08 674.4 29.74 672.41 30.16C669.66 30.99 668.09 32.07 668.41 33.81C667.113 33.5422 665.764 33.7183 664.58 34.31C663.398 34.1424 662.204 34.0622 661.01 34.07C660.718 34.7932 660.356 35.4865 659.93 36.14C651.04 40.46 641.48 37.8 632.09 37.05C631.59 36.72 631.17 36.39 630.68 36.05C626.02 36.21 621.37 36.63 617.38 34.8C611.89 35.21 606.38 35.55 600.92 35.88L589.33 33.65C585.84 31.07 580.68 31.57 575.78 31.65C567.05 28.25 558.33 27.83 549.6 31.65C536.97 31.74 526 23.59 512.17 29.57C508.6 31.98 503.78 31.74 498.79 31.57C497.79 30.82 496.79 29.99 495.71 29.24C489.65 26.5 481.71 26.42 474.52 25.42C464.05 29.16 453.74 26.17 443.35 25.25C440.53 24.42 437.7 23.59 434.79 22.76C433.13 21.51 431.39 20.26 429.72 18.94L418 20.85L409.53 20.26C404.21 12.62 394.82 20.6 388 18.77C378.69 19.52 368.39 19.18 360.33 21.34C350.85 23.68 346.53 21.18 341.04 18.6C336.64 18.03 333.65 9.87999 327.75 17.94C323.67 19.6 319.68 21.27 315.61 22.84C312.87 23.84 310.04 24.76 307.3 25.75L281.87 29.24C278.21 26.92 272.81 29 268.74 27.83C267.41 27.5 266 27.17 264.58 26.92C258.93 27.83 251.95 26.42 247.38 29.49C246.05 30.24 245.88 31.16 247.05 32.07C247.38 32.15 247.54 31.91 247.79 31.98L243.55 33.98C243.55 33.73 243.97 33.81 243.89 33.57C239.98 31.24 234.16 33.15 229.76 31.98C228.76 31.98 227.68 31.91 226.68 31.82C221.61 39.22 205.32 38.22 196.6 42.82C185.79 39.25 178.89 47.72 168.67 45.65C168.34 45.48 168.51 45.23 168.17 44.98C163.6 43.73 160.78 45.23 157.87 46.73C146.73 47.06 135.59 47.39 124.46 47.64C124.46 48.3 124.37 48.97 124.37 49.64L119.64 51.13C118.72 51.3 117.72 51.3 116.81 51.38C110.16 48.3 102.18 49.97 94.7 49.64L89.88 53.79L73.26 54.29C68.61 54.12 63.95 53.96 59.38 54.21C55.06 54.45 50.74 55.03 46.38 54.87C39.15 55.95 32.08 57.03 24.38 55.2C17.98 53.71 10.92 53.13 5.01996 56.2V58.74H0.0199585V1624.74H2138.79V58.74L2138.98 14.23ZM1809.64 19.02C1809.59 18.974 1809.53 18.9369 1809.46 18.91C1809.54 18.94 1809.64 18.96 1809.64 19.02Z" fill="url(#paint0_linear_0_505)"/>
<defs>
<linearGradient id="paint0_linear_0_505" x1="0.0699585" y1="812.74" x2="2138.98" y2="812.74" gradientUnits="userSpaceOnUse">
<stop stop-color="#005E56"/>
<stop offset="1" stop-color="#004E5C"/>
</linearGradient>
</defs>
</svg>
