<svg width="44" height="43" viewBox="0 0 44 43" fill="none" xmlns="http://www.w3.org/2000/svg">
<path d="M33.1567 12.5826C34.5403 12.5826 35.6619 11.4609 35.6619 10.0773C35.6619 8.6938 34.5403 7.57227 33.1567 7.57227C31.7732 7.57227 30.6516 8.6938 30.6516 10.0773C30.6516 11.4609 31.7732 12.5826 33.1567 12.5826Z" fill="white"/>
<path d="M22.1113 10.7607C16.3608 10.7607 11.6352 15.4295 11.6352 21.2369C11.6352 27.0442 16.3039 31.7128 22.1113 31.7128C27.8617 31.7128 32.5873 27.0442 32.5873 21.2369C32.5873 15.4295 27.8617 10.7607 22.1113 10.7607ZM22.1113 27.9552C18.4105 27.9552 15.393 24.9376 15.393 21.2369C15.393 17.5361 18.4105 14.5185 22.1113 14.5185C25.812 14.5185 28.8296 17.5361 28.8296 21.2369C28.8296 24.9376 25.812 27.9552 22.1113 27.9552Z" fill="white"/>
<path d="M30.4237 42.4735H13.4571C6.39718 42.4735 0.703674 36.78 0.703674 29.72V12.7534C0.703674 5.69344 6.39718 0 13.4571 0H30.4237C37.4836 0 43.1771 5.69344 43.1771 12.7534V29.72C43.1771 36.723 37.4267 42.4735 30.4237 42.4735ZM13.4571 3.98545C8.61765 3.98545 4.68912 7.9139 4.68912 12.7534V29.72C4.68912 34.5595 8.61765 38.4881 13.4571 38.4881H30.4237C35.2632 38.4881 39.1917 34.5595 39.1917 29.72V12.7534C39.1917 7.9139 35.2632 3.98545 30.4237 3.98545H13.4571Z" fill="white"/>
</svg>
